<svg id="Layer_1" data-name="Layer 1" xmlns="http://www.w3.org/2000/svg" viewBox="0 0 485.63 497.92"><defs><style>.cls-1{fill:#8d99ae;}.cls-2{fill:#ef8787;}</style></defs><path class="cls-1" d="M308,198h30.49c4.33,0,8.67-.1,13,.07a20.86,20.86,0,0,1,4.53,1.19c-.55,1.64-.7,3.58-1.7,4.88-8.42,11-17,21.77-25.53,32.67q-70,89.79-140,179.6c-12.91,16.53-26,32.92-39,49.36a16.61,16.61,0,0,1-2.68,2.94c-.7.54-2.16,1.1-2.57.78a3.76,3.76,0,0,1-1.36-2.85,24.71,24.71,0,0,1,1.74-5.7Q169.43,399.23,194,337.51q16-40.12,32.14-80.2c.47-1.19.77-2.44,1.37-4.37h-5.91c-15.16,0-30.33,0-45.49-.12-1.58,0-3.16-1.14-4.74-1.75.58-1.46.82-3.21,1.79-4.33q25.22-29,50.6-57.89,26-29.68,51.91-59.39l45-51.5,45-51.5q10.21-11.64,20.73-23c1-1.12,3-1.41,4.5-2.08,0,1.64.62,3.53,0,4.9q-34.86,80.47-69.83,160.83C316.73,177.18,312.52,187.28,308,198Z" transform="translate(-0.97 -1.38)"/><path class="cls-2" d="M409.24,173.89H354c-6.13,0-7-1.35-4.47-6.68,13.09-27.53,26.26-55,39.22-82.61,1.9-4,4.28-5.55,8.8-5.52,27.83.2,55.66.07,83.49.15,1.85,0,3.7.83,5.55,1.27-.49,2-.57,4.22-1.54,5.94q-30.39,53.7-61,107.3-29.3,51.45-58.67,102.85-35.14,61.64-70.25,123.3-21.64,38-43.39,75.9c-2.71,4.74-4.93,4.73-7.72-.31-9.26-16.76-18.37-33.61-27.54-50.42-2.24-4.1-4.88-8-6.54-12.35-.8-2.06-.69-5.57.58-7.18C230,400.8,249.77,376.36,269.3,351.7q55.35-69.87,110.48-139.91C389.39,199.65,398.78,187.38,409.24,173.89Z" transform="translate(-0.97 -1.38)"/><path class="cls-2" d="M65.58,79.11c19.66,0,39.33.1,59-.08,4.06,0,6.38,1.45,8.33,4.9q26.22,46.32,52.68,92.48c1.89,3.31,2,6-.63,9q-24.17,27.71-48.08,55.5c-7.29,8.44-14.42,17-21.69,25.46-5.56,6.44-6.69,6.34-10.86-1q-28.81-50.88-57.55-101.8L2.78,85.7C-.31,80.24.29,79.18,6.59,79.18Q36.07,79.1,65.58,79.11Z" transform="translate(-0.97 -1.38)"/><path class="cls-2" d="M150.29,283h28.46c5.71,0,6.38.83,4.46,6q-11.43,30.89-23,61.69c-.51,1.36-1.9,3.19-3,3.29s-3.06-1.27-3.78-2.5q-18.3-31.21-36.31-62.58c-2.54-4.43-1.48-5.87,3.77-5.89C130.66,282.94,140.47,283,150.29,283Z" transform="translate(-0.97 -1.38)"/></svg>